<svg id="logo--full" xmlns="http://www.w3.org/2000/svg" width="105.713" height="17.613" viewBox="0 0 105.713 17.613">
  <path id="Path_25161" data-name="Path 25161" d="M7.618,0C7.15,0,7.054.082,6.9.25Q6.809.244,6.716.245A2.162,2.162,0,0,0,5.5.562a.782.782,0,0,0-.359,1.02s.136-.2.582-.2c.063,0,.132.007.206.013A1.043,1.043,0,0,1,6.95,2.651C6.9,3.508,6.58,4.465,5.263,4.476c0,0-.169,0-.35-.016a.992.992,0,0,1-.8-.453.8.8,0,0,0,.533-.815,1.219,1.219,0,0,0-.975-1.044,2.181,2.181,0,0,0-.61-.082,2.452,2.452,0,0,0-1.949.952C-.055,4.551-.149,6.787.135,8.867a10.8,10.8,0,0,0,1.643,4.067c.029.037.055.057.082.057a.068.068,0,0,0,.044-.02,7,7,0,0,0,1.35-1.818c.247.2.118.621-.02,1.073A6.86,6.86,0,0,1,2.677,13.5c-.112.193-.261.418-.062.535a.146.146,0,0,0,.077.019c.256,0,.859-.447,1.531-1.342a10.339,10.339,0,0,0,1.132-1.9c.055.013.148.106.132.36a6.342,6.342,0,0,1-.79,2.108,12.154,12.154,0,0,1-1.1,1.577c-.061.074-.011.12.029.149a12.981,12.981,0,0,0,2.3,1.614,10.474,10.474,0,0,0,2.291,1,10.309,10.309,0,0,0,2.289-.993A12.439,12.439,0,0,0,12.808,15a.091.091,0,0,0,.031-.149,12.036,12.036,0,0,1-1.1-1.574,6.2,6.2,0,0,1-.792-2.105c-.012-.256.075-.341.127-.362a10.314,10.314,0,0,0,1.138,1.9c.674.9,1.272,1.342,1.53,1.342a.158.158,0,0,0,.079-.019c.194-.117.05-.345-.065-.535a7.872,7.872,0,0,1-.563-1.27c-.13-.456-.265-.879-.013-1.073a6.883,6.883,0,0,0,1.348,1.813.067.067,0,0,0,.049.024.106.106,0,0,0,.077-.054A10.71,10.71,0,0,0,16.3,8.867c.285-2.084.191-4.316-.973-5.85a2.452,2.452,0,0,0-1.957-.956,2.172,2.172,0,0,0-.6.082A1.212,1.212,0,0,0,11.8,3.193a.8.8,0,0,0,.531.815.988.988,0,0,1-.811.453,2.757,2.757,0,0,1-.345.022,1.4,1.4,0,0,1-1.248-.675,4.111,4.111,0,0,1-.371-1.886A2.311,2.311,0,0,0,9.1.463,2.048,2.048,0,0,0,7.725,0H7.613" transform="translate(0)" fill="#fff"/>
  <path id="Path_25162" data-name="Path 25162" d="M121.465,6.423a3.59,3.59,0,0,0-3.072-1.782c-1.152,0-2.165.472-2.165,1.694,0,1.029,1.276,1.728,2.6,2.584,1.449.906,2.95,2.024,2.95,3.963,0,2.531-2.462,4.084-5.309,4.084a10.473,10.473,0,0,1-3.77-.75l.227-3.369a4.059,4.059,0,0,0,3.735,2.409c1.415,0,2.462-.68,2.462-1.869,0-1.012-.856-1.64-1.9-2.268-2.2-1.327-3.6-2.392-3.6-4.313,0-2.88,2.408-3.84,4.9-3.84,1.449,0,2.358.262,3.283.262l-.349,3.195m-12.2,3.02c-.316.524-.715,1.238-.96,1.763a19.406,19.406,0,0,0-.314,3.786,3,3,0,0,0,.384,1.711h-3.648c.646-.611.908-4.362.874-5.552a28.774,28.774,0,0,0-2.166-5.289,7.568,7.568,0,0,0-1.867-2.636c.82-.069,1.867-.123,2.374-.123.908,0,1.152.123,1.712,1.345C106.52,6.42,107.165,7.9,107.55,9c.927-1.45,1.572-2.444,2.409-3.806a2.259,2.259,0,0,0,.384-1.153,1.394,1.394,0,0,0-.192-.823h3.614c-.7.157-3.841,5.1-4.5,6.214M96.57,6.382l-2.164,4.7h3.526l-1.362-4.7m4.242,10.438c-1.152,0-1.24-.034-2.166-3.21l-.329-1.17a8.305,8.305,0,0,1-3.142.383H93.57l-.28.594a8.19,8.19,0,0,0-.943,2.672,2.126,2.126,0,0,0,.088.611H82.9c.542-.611.716-2.583.978-6.162l.052-.855c.14-2.043.247-3.613.228-4.713a2.917,2.917,0,0,0-.35-1.746h3.684c-.525.4-.717,2.566-.96,6.145l-.071.854c-.087,1.328-.262,2.689-.262,4.015,0,.611.247.75.874.75,2.233,0,2.793-.052,3.8-.733.628-1.152,1.345-2.6,2.042-4.1l.947-2.007A27.466,27.466,0,0,0,95.63,3.973a1.9,1.9,0,0,0-.173-.751H98.39s1.186,4.4,1.448,5.341l.576,2.131c.995,3.58,1.624,5.324,2.463,6a20.573,20.573,0,0,1-2.061.124m-23.756.14c-3.475,0-5.483-2.862-5.483-6.074,0-4.469,2.428-7.926,7.053-7.926,1.45,0,2.13.262,3.3.262l-.349,3.439a3.584,3.584,0,0,0-3.193-2.025c-2.88,0-4.05,3.108-4.05,5.778,0,2.9,1.623,4.485,3.785,4.485a6.407,6.407,0,0,0,3.927-1.518,4.794,4.794,0,0,1-4.991,3.58M65.013,4.866a10.467,10.467,0,0,0-1.047.034c-.105.576-.193,1.572-.315,3.177l-.071.944a3.316,3.316,0,0,0,.613.054,2.558,2.558,0,0,0,2.828-2.549c0-1.049-.733-1.659-2.007-1.659m4.869,12.412c-.994,0-1.239-.158-1.57-.612L64.54,11.428c-.3-.4-.523-.733-.994-.733h-.088l-.07,1.012c-.088,1.379-.14,2.48-.14,3.3.017.907.123,1.466.367,1.693H59.968c.523-.472.715-2.042,1.012-6.162l.053-.855c.14-2.025.245-3.6.227-4.7-.018-.96-.12-1.554-.384-1.764H65.85c1.623,0,3.858.28,3.858,2.916,0,2.163-1.45,3.351-3.247,3.909a8.685,8.685,0,0,1,.68.8l2.74,3.631c1.712,2.251,1.852,2.356,2.462,2.671a24.626,24.626,0,0,1-2.463.124m-17-10.892L50.7,11.081h3.544L52.881,6.387M57.12,16.824c-1.153,0-1.238-.034-2.163-3.21l-.332-1.17a8.311,8.311,0,0,1-3.142.383H49.877l-.28.594a8.444,8.444,0,0,0-.942,2.672,2.214,2.214,0,0,0,.088.611H45.513c.925-.925,2.094-3.072,3.718-6.546l.943-2.007a32.014,32.014,0,0,0,1.763-4.173,1.869,1.869,0,0,0-.175-.75H54.7s.766,2.915,1.448,5.341L56.72,10.7c.995,3.58,1.623,5.323,2.462,6-.751.088-1.694.12-2.062.12M40.5,4.852a8.962,8.962,0,0,0-.943.036c-.14.942-.227,1.852-.3,2.844,0,0-.052.855-.052.82h.349c1.711,0,3.283-.593,3.283-2.163,0-.91-.751-1.537-2.34-1.537m-.436,5.341h-.959l-.14,1.99q-.1,1.237-.124,2.479c0,.123.383.385,1.292.385,1.885,0,3.125-.942,3.125-2.5,0-1.728-1.414-2.356-3.194-2.356m.209,6.511H35.56c.594-.524.751-2.566,1.012-6.162l.053-.837c.14-2.043.245-3.614.227-4.713-.018-.943-.123-1.554-.385-1.764h5.272c1.257,0,3.771.07,3.771,2.688,0,1.746-1.624,2.828-3.107,3.212,2.095.21,3.666,1.222,3.666,3.387,0,2.339-2.2,4.189-5.8,4.189" transform="translate(-16.099 -1.341)" fill="#fff"/>
</svg>
