<svg xmlns="http://www.w3.org/2000/svg" width="29.633" height="20.449" viewBox="0 0 29.633 20.449">
  <path id="Path_25161" data-name="Path 25161" d="M17.959,11.33l-.849.849c.579.579.772.849.81,1.119.039-.039.81-.694.81-.926,0-.347-.231-.463-.772-1.042M9.394,16.539H6.5A1.755,1.755,0,0,1,7,17.85v3.472c0,.887.347.887.347.887h2.817a.757.757,0,0,0,.849-.694v-.347s-.193.424-1.042.424H8.622c-.424,0-.386-.347-.424-.656V19.008h.965a2,2,0,0,1,.926.193,1.352,1.352,0,0,0-1.273-.772H8.2v-.617a1.817,1.817,0,0,0-.116-.694h.887a3.356,3.356,0,0,1,1.968.386c.039.077-.077-.965-1.543-.965m4.476,1.119a1.216,1.216,0,0,0-1.157.887s-.039-.849-.772-.849h-.733s.424.154.424.887v2.7c0,.887.347.926.347.926h1.2a1.129,1.129,0,0,1-.463-.926V18.892a.642.642,0,0,1,.694-.463.671.671,0,0,1,.617.656v2.238c0,.926.347.926.347.926h1.2a1.157,1.157,0,0,1-.463-.926V18.931a.662.662,0,0,1,.656-.463.676.676,0,0,1,.656.656v2.238c0,.887.347.887.347.887h1.2a1.157,1.157,0,0,1-.463-.926V18.892a1.184,1.184,0,0,0-1.35-1.2,1.145,1.145,0,0,0-1.08.849,1.154,1.154,0,0,0-1.2-.887m5.016.039h-.733a.918.918,0,0,1,.424.887v2.7c0,.887.347.887.347.887h1.2a1.157,1.157,0,0,1-.463-.926V18.661c0-.965-.54-.965-.772-.965m2.122,0h-.733s.424.154.424.887v2.7c0,.887.347.926.347.926h1.2a1.129,1.129,0,0,1-.463-.926V19.047a.768.768,0,0,1,.309-.463.886.886,0,0,1,.54-.154.95.95,0,0,1,.733.347V18s-.116-.309-.617-.309c-.733,0-.926.887-.926.887-.077-.694-.27-.887-.81-.887m7.6-1.042a3.536,3.536,0,0,1-.81.887,8.2,8.2,0,0,1-1.042.617h.772v3.164c0,.887.347.887.347.887h1.2a1.13,1.13,0,0,1-.463-.887V18.2h.309a1.452,1.452,0,0,1,.694.193V17.7h-1V16.654M31.579,17.7c-1.235,0-1.891,1.157-1.891,2.392a2,2,0,0,0,1.968,2.161,1.731,1.731,0,0,0,1.273-.347v-.733a1.022,1.022,0,0,1-.926.579,1.158,1.158,0,0,1-.5-.116,1.219,1.219,0,0,1-.617-.926c.424-.5.965-.386,1.62-1.119.926-.926.27-1.891-.926-1.891M30.846,20.2s-.154-2.083.617-2.161H31.5c.617,0,.463.887.27,1.235-.27.579-.656.617-.926.926M19.117,16.23a.54.54,0,1,0,.54.54.527.527,0,0,0-.54-.54M24.981,17.7a1.877,1.877,0,0,0-1.119.347v.772a.986.986,0,0,1,.887-.617c.617,0,.656.309.656.463a.564.564,0,0,1-.077.463c-.27.5-2.431.579-2.122,2.276a.989.989,0,0,0,1.119.849,1.09,1.09,0,0,0,1-.54c.077.5.347.54.347.54h1.2a1.13,1.13,0,0,1-.463-.887V18.815A1.335,1.335,0,0,0,24.981,17.7M24.6,21.709a.528.528,0,0,1-.463-.579c0-1.119.926-1.273,1.157-1.582v1.891a.779.779,0,0,1-.694.27m10.186-4.051a1.232,1.232,0,0,0-1.35,1.08,1.374,1.374,0,0,0,.656,1.2l.617.386a.745.745,0,0,1,.463.656.8.8,0,0,1-.887.733,1.065,1.065,0,0,1-.887-.656v.81a2.19,2.19,0,0,0,1.119.309,1.552,1.552,0,0,0,1.62-1.466,1.243,1.243,0,0,0-.27-.772,4.4,4.4,0,0,0-1.157-.887.779.779,0,0,1-.347-.463c0-.154.077-.463.694-.463a1.037,1.037,0,0,1,.849.617v-.772a3.293,3.293,0,0,0-1.119-.309M16.03,9.825h-.463a1.047,1.047,0,0,1,.463.887V12.8A2.624,2.624,0,0,0,18.5,15.42h1.119a1.5,1.5,0,0,0,1.312-.54l.424-.424a1.453,1.453,0,0,0,.5-1.2v-.694a1.291,1.291,0,0,0-.5-1l-.386-.386v1.389a2.246,2.246,0,0,0,.424.386.723.723,0,0,1-.424,1.273H18.461a2.229,2.229,0,0,1-2.122-2.161V10.944c0-1.119-.309-1.119-.309-1.119m3.627,1.5-.849.849c.579.579.772.849.81,1.119.039-.039.81-.694.81-.926,0-.347-.231-.5-.772-1.042M21.393,1.8l-.579.579c-.231.231-.154.694.309,1.157V4.694a.4.4,0,0,1-.116.231A2.5,2.5,0,0,0,19.7,4.308h-.926a1.925,1.925,0,0,0-1.119.579.935.935,0,0,0-.077,1.157l.656.656a5.959,5.959,0,0,1,0-1.736.5.5,0,0,1,.424-.347l1.5,1.157L18.422,7.587a.882.882,0,0,1-.54.231.582.582,0,0,1-.5-.309v.849c0,.27.386.579.733.579h2.315a.692.692,0,0,0,.5-.193l.772-.772a.615.615,0,0,0,.154-.463V6.623a2.4,2.4,0,0,0-.656-1.5.572.572,0,0,0,.154-.463V3.768a1.879,1.879,0,0,1,.309.386l.5-.5C22.4,3.42,22.01,3,21.856,2.8a1.617,1.617,0,0,1-.463-1M18.5,7.9a1.2,1.2,0,0,0,.463-.424l1.466-1.543a10.62,10.62,0,0,1,1.08,1.312c.116.231.27.656-.424.656H18.5M16.532,6.121h-.424a1.194,1.194,0,0,1,.463.887v1.7c0,.463.347,2.122,1.852,2.122h4.36v2.778a1.2,1.2,0,0,1-.27.849l-.656.617h.309l1.2-1.08a1.743,1.743,0,0,0,.5-1.389V10.828l.5-.5.849-.81c0,.694.347,1,.656,1a.769.769,0,0,0,.463-.193l.772-.733c.347-.347.54-1.428-.309-1.428-.54,0-1.157.772-1.2.849a1.245,1.245,0,0,1-.347-.386v.656a1.1,1.1,0,0,1-.694.386h-.694V9.015a1.274,1.274,0,0,1,.27-.81l.656-.617H24.48l-1.312,1.2a2.032,2.032,0,0,0-.386.887H17.843a1.1,1.1,0,0,1-1-1.119V7.279c0-1.042-.27-1.157-.309-1.157m9.993,3.7a.624.624,0,0,1-.386-.154,3.2,3.2,0,0,1-.424-.5.859.859,0,0,1,.5-.154c.154,0,.309.039.347.116.27.347.231.694-.039.694M24.48,1.8,23.168,3a1.832,1.832,0,0,0-.386,1.08V7.51a1.258,1.258,0,0,1-.27.694l-.656.617h.309L23.4,7.7a1.657,1.657,0,0,0,.463-1.2V3.228a1.2,1.2,0,0,1,.347-.887l.579-.54H24.48m.193,8.8v1.35l.463.5c.386.386.347,1.119-.81,2.238a2.316,2.316,0,0,1-1.582.733H20.66l1.235,1.08h.849a2.9,2.9,0,0,0,2.122-.887,2.527,2.527,0,0,0,.694-1.852V11.986a1.421,1.421,0,0,0-.463-1.042c-.077,0-.424-.347-.424-.347" transform="translate(-6.5 -1.8)" fill="#fff"/>
</svg>
