<svg xmlns="http://www.w3.org/2000/svg" width="76.803" height="15.6" viewBox="0 0 76.803 15.6">
  <path id="Path_25161" data-name="Path 25161" d="M14,40H6.5a4.549,4.549,0,0,1,1.3,3.4v9c0,2.3.9,2.3.9,2.3H16a1.962,1.962,0,0,0,2.2-1.8V52s-.5,1.1-2.7,1.1H12c-1.1,0-1-.9-1.1-1.7v-5h2.5a5.186,5.186,0,0,1,2.4.5,3.5,3.5,0,0,0-3.3-2H10.9V43.3a4.708,4.708,0,0,0-.3-1.8h2.3c2,0,3.5,0,5.1,1,.1.2-.2-2.5-4-2.5m11.6,2.9a3.152,3.152,0,0,0-3,2.3s-.1-2.2-2-2.2H18.7s1.1.4,1.1,2.3v7c0,2.3.9,2.4.9,2.4h3.1a2.925,2.925,0,0,1-1.2-2.4V46.1a1.663,1.663,0,0,1,1.8-1.2A1.738,1.738,0,0,1,26,46.6v5.8c0,2.4.9,2.4.9,2.4H30a3,3,0,0,1-1.2-2.4V46.2A1.716,1.716,0,0,1,30.5,45a1.752,1.752,0,0,1,1.7,1.7v5.8c0,2.3.9,2.3.9,2.3h3.1A3,3,0,0,1,35,52.4V46.1c0-2.5-2-3.1-3.5-3.1a2.967,2.967,0,0,0-2.8,2.2,2.992,2.992,0,0,0-3.1-2.3m13,.1H36.7a2.378,2.378,0,0,1,1.1,2.3v7c0,2.3.9,2.3.9,2.3h3.1a3,3,0,0,1-1.2-2.4V45.5c0-2.5-1.4-2.5-2-2.5m5.5,0H42.2s1.1.4,1.1,2.3v7c0,2.3.9,2.4.9,2.4h3.1a2.925,2.925,0,0,1-1.2-2.4V46.5a1.991,1.991,0,0,1,.8-1.2,2.3,2.3,0,0,1,1.4-.4,2.463,2.463,0,0,1,1.9.9v-2s-.3-.8-1.6-.8c-1.9,0-2.4,2.3-2.4,2.3-.2-1.8-.7-2.3-2.1-2.3m19.7-2.7a9.165,9.165,0,0,1-2.1,2.3A21.257,21.257,0,0,1,59,44.2h2v8.2c0,2.3.9,2.3.9,2.3H65a2.928,2.928,0,0,1-1.2-2.3V44.3h.8a3.764,3.764,0,0,1,1.8.5V43H63.8V40.3M71.5,43c-3.2,0-4.9,3-4.9,6.2s2.1,5.6,5.1,5.6c2.5,0,3.3-.9,3.3-.9V52a2.65,2.65,0,0,1-2.4,1.5,3,3,0,0,1-1.3-.3,3.159,3.159,0,0,1-1.6-2.4c1.1-1.3,2.5-1,4.2-2.9,2.4-2.4.7-4.9-2.4-4.9m-1.9,6.5s-.4-5.4,1.6-5.6h.1c1.6,0,1.2,2.3.7,3.2-.7,1.5-1.7,1.6-2.4,2.4M39.2,39.2a1.4,1.4,0,1,0,1.4,1.4,1.367,1.367,0,0,0-1.4-1.4M54.4,43a4.865,4.865,0,0,0-2.9.9v2a2.555,2.555,0,0,1,2.3-1.6c1.6,0,1.7.8,1.7,1.2a1.462,1.462,0,0,1-.2,1.2c-.7,1.3-6.3,1.5-5.5,5.9a2.564,2.564,0,0,0,2.9,2.2,2.826,2.826,0,0,0,2.6-1.4c.2,1.3.9,1.4.9,1.4h3.1a2.928,2.928,0,0,1-1.2-2.3V45.9C58,44.2,56.3,43,54.4,43m-1,10.4a1.367,1.367,0,0,1-1.2-1.5c0-2.9,2.4-3.3,3-4.1v4.9a2.02,2.02,0,0,1-1.8.7M79.8,42.9c-1.9,0-3.5,1.2-3.5,2.8A3.56,3.56,0,0,0,78,48.8l1.6,1a1.931,1.931,0,0,1,1.2,1.7,2.078,2.078,0,0,1-2.3,1.9,2.761,2.761,0,0,1-2.3-1.7v2.1a5.677,5.677,0,0,0,2.9.8c2.1,0,4.3-1.6,4.2-3.8a3.221,3.221,0,0,0-.7-2,11.4,11.4,0,0,0-3-2.3,2.019,2.019,0,0,1-.9-1.2c0-.4.2-1.2,1.8-1.2a2.687,2.687,0,0,1,2.2,1.6v-2a8.535,8.535,0,0,0-2.9-.8" transform="translate(-6.5 -39.2)" fill="#fff"/>
</svg>
