<svg xmlns="http://www.w3.org/2000/svg" width="29.633" height="15.41" viewBox="0 0 29.633 15.41">
  <g id="Group_24226" data-name="Group 24226" transform="translate(-0.2 -0.8)">
    <path id="Path_25158" data-name="Path 25158" d="M.769.847C.413.847.2,1.013.2,1.322V15.736a.448.448,0,0,0,.474.474H26.611a.442.442,0,0,0,.522-.356s2.608-8.179,2.655-8.322a.468.468,0,0,0-.213-.64C21.158,1.582,8.5.8,2.784.8,1.954.8,1.291.847.769.847Z" transform="translate(0 0)" fill="#fff"/>
    <path id="Path_25159" data-name="Path 25159" d="M10.628,30.735c-.972-.427-1.612-.688-1.446-1.162.166-.569,1.138-.782,2.015-.735A3.674,3.674,0,0,1,12.335,29l.308-1a5.553,5.553,0,0,0-1.3-.119c-1.754-.047-3.319.427-3.7,1.422-.474,1.162.877,1.873,2.063,2.418.972.427,1.66.877,1.4,1.375-.166.427-.877.616-1.826.616a7.032,7.032,0,0,1-2.7-.64L6.1,34.125a9.419,9.419,0,0,0,2.892.688c1.968.047,3.272-.427,3.793-1.517C13.355,31.991,11.861,31.327,10.628,30.735Z" transform="translate(-4.501 -20.665)" fill="#0f1524"/>
    <path id="Path_25160" data-name="Path 25160" d="M33.8,32.294a.047.047,0,0,0,.095,0c0-.047.972-2.987.972-2.987a17.911,17.911,0,0,1,2.489,5.145h1.565l.782-2.466a.047.047,0,0,1,.095,0c.213,1.517,1.778,2.56,3.983,2.56a8.975,8.975,0,0,0,3.011-.522l.83-2.608H50.8l.308-1H47.884l.569-1.683h3.793l.356-1.043H47.243l-1.778,5.619a6.1,6.1,0,0,1-1.351.119,3.064,3.064,0,0,1-2.395-.83,1.812,1.812,0,0,1-.4-1.565c.213-1.422,1.612-2.347,3.485-2.347a5,5,0,0,1,1.185.095l.4-1.091a7.666,7.666,0,0,0-1.517-.095,5.444,5.444,0,0,0-4.054,1.565c0,.047-.047.047-.095.047s-.047,0-.047-.047l.474-1.47h-1.4l-1.565,4.718a16.734,16.734,0,0,0-2.7-4.718H33.991L32.9,31.156A2.669,2.669,0,0,1,33.8,32.294Z" transform="translate(-24.947 -20.446)" fill="#0f1524"/>
  </g>
</svg>
